<svg width="125" height="68" viewBox="0 0 125 68" fill="none" xmlns="http://www.w3.org/2000/svg">
<rect x="12" y="2" width="44" height="44" rx="22" fill="#A4DE02"/>
<g filter="url(#filter0_dd_11_326)">
<rect x="12" y="2" width="44" height="44" rx="22" fill="white" fill-opacity="0.01" shape-rendering="crispEdges"/>
</g>
<path d="M36.6668 21.3333L34.0002 22.6667M34.0002 22.6667L31.3335 21.3333M34.0002 22.6667V26M44.6668 17.3333L42.0002 18.6667M44.6668 17.3333L42.0002 16M44.6668 17.3333V20.6667M36.6668 13.3333L34.0002 12L31.3335 13.3333M23.3335 17.3333L26.0002 16M23.3335 17.3333L26.0002 18.6667M23.3335 17.3333V20.6667M34.0002 36L31.3335 34.6667M34.0002 36L36.6668 34.6667M34.0002 36V32.6667M26.0002 32L23.3335 30.6667V27.3333M42.0002 32L44.6668 30.6667V27.3333" stroke="white" stroke-width="2.66667" stroke-linecap="round" stroke-linejoin="round"/>
<path d="M69.517 33V15.5455H73.2074V22.7472H80.6989V15.5455H84.3807V33H80.6989V25.7898H73.2074V33H69.517ZM95.15 27.4261V19.9091H98.7807V33H95.2949V30.6222H95.1585C94.8631 31.3892 94.3716 32.0057 93.6841 32.4716C93.0023 32.9375 92.1699 33.1705 91.1869 33.1705C90.3119 33.1705 89.542 32.9716 88.8773 32.5739C88.2125 32.1761 87.6926 31.6108 87.3176 30.8778C86.9483 30.1449 86.7608 29.267 86.7551 28.2443V19.9091H90.3858V27.5966C90.3915 28.3693 90.5989 28.9801 91.008 29.429C91.417 29.8778 91.9653 30.1023 92.6528 30.1023C93.0903 30.1023 93.4994 30.0028 93.8801 29.804C94.2608 29.5994 94.5676 29.2983 94.8006 28.9006C95.0392 28.5028 95.1557 28.0114 95.15 27.4261ZM108.048 19.9091V22.6364H100.164V19.9091H108.048ZM101.954 16.7727H105.585V28.9773C105.585 29.3125 105.636 29.5739 105.738 29.7614C105.84 29.9432 105.983 30.071 106.164 30.1449C106.352 30.2187 106.568 30.2557 106.812 30.2557C106.983 30.2557 107.153 30.2415 107.323 30.2131C107.494 30.179 107.625 30.1534 107.715 30.1364L108.287 32.8381C108.105 32.8949 107.849 32.9602 107.519 33.0341C107.19 33.1136 106.789 33.1619 106.318 33.179C105.443 33.2131 104.676 33.0966 104.017 32.8295C103.363 32.5625 102.855 32.1477 102.491 31.5852C102.127 31.0227 101.948 30.3125 101.954 29.4545V16.7727ZM116.29 33.2386C114.978 33.2386 113.81 33.0256 112.787 32.5994C111.77 32.1676 110.972 31.5795 110.392 30.8352C109.813 30.0909 109.523 29.2472 109.523 28.304C109.523 27.5767 109.688 26.9091 110.017 26.3011C110.353 25.6875 110.807 25.179 111.381 24.7756C111.955 24.3665 112.597 24.1051 113.307 23.9915V23.8722C112.375 23.6847 111.62 23.233 111.04 22.517C110.461 21.7955 110.171 20.9574 110.171 20.0028C110.171 19.0994 110.435 18.2955 110.963 17.5909C111.492 16.8807 112.216 16.3239 113.137 15.9205C114.063 15.5114 115.114 15.3068 116.29 15.3068C117.466 15.3068 118.515 15.5114 119.435 15.9205C120.361 16.3295 121.088 16.8892 121.617 17.5994C122.145 18.304 122.412 19.1051 122.418 20.0028C122.412 20.9631 122.117 21.8011 121.532 22.517C120.946 23.233 120.196 23.6847 119.282 23.8722V23.9915C119.981 24.1051 120.614 24.3665 121.182 24.7756C121.756 25.179 122.211 25.6875 122.546 26.3011C122.887 26.9091 123.06 27.5767 123.066 28.304C123.06 29.2472 122.767 30.0909 122.188 30.8352C121.608 31.5795 120.807 32.1676 119.785 32.5994C118.767 33.0256 117.603 33.2386 116.29 33.2386ZM116.29 30.5284C116.875 30.5284 117.387 30.4233 117.824 30.2131C118.262 29.9972 118.603 29.7017 118.847 29.3267C119.097 28.946 119.222 28.5085 119.222 28.0142C119.222 27.5085 119.094 27.0625 118.838 26.6761C118.583 26.2841 118.236 25.9773 117.799 25.7557C117.361 25.5284 116.858 25.4148 116.29 25.4148C115.728 25.4148 115.225 25.5284 114.782 25.7557C114.338 25.9773 113.989 26.2841 113.733 26.6761C113.483 27.0625 113.358 27.5085 113.358 28.0142C113.358 28.5085 113.481 28.946 113.725 29.3267C113.969 29.7017 114.313 29.9972 114.756 30.2131C115.199 30.4233 115.711 30.5284 116.29 30.5284ZM116.29 22.7301C116.779 22.7301 117.213 22.6307 117.594 22.4318C117.975 22.233 118.273 21.9574 118.489 21.6051C118.705 21.2528 118.813 20.8466 118.813 20.3864C118.813 19.9318 118.705 19.5341 118.489 19.1932C118.273 18.8466 117.978 18.5767 117.603 18.3835C117.228 18.1847 116.79 18.0852 116.29 18.0852C115.796 18.0852 115.358 18.1847 114.978 18.3835C114.597 18.5767 114.299 18.8466 114.083 19.1932C113.873 19.5341 113.767 19.9318 113.767 20.3864C113.767 20.8466 113.875 21.2528 114.091 21.6051C114.307 21.9574 114.606 22.233 114.986 22.4318C115.367 22.6307 115.802 22.7301 116.29 22.7301Z" fill="#6B0F9C"/>
<defs>
<filter id="filter0_dd_11_326" x="0" y="0" width="68" height="68" filterUnits="userSpaceOnUse" color-interpolation-filters="sRGB">
<feFlood flood-opacity="0" result="BackgroundImageFix"/>
<feColorMatrix in="SourceAlpha" type="matrix" values="0 0 0 0 0 0 0 0 0 0 0 0 0 0 0 0 0 0 127 0" result="hardAlpha"/>
<feMorphology radius="4" operator="erode" in="SourceAlpha" result="effect1_dropShadow_11_326"/>
<feOffset dy="4"/>
<feGaussianBlur stdDeviation="3"/>
<feComposite in2="hardAlpha" operator="out"/>
<feColorMatrix type="matrix" values="0 0 0 0 0.643137 0 0 0 0 0.870588 0 0 0 0 0.00784314 0 0 0 0.2 0"/>
<feBlend mode="normal" in2="BackgroundImageFix" result="effect1_dropShadow_11_326"/>
<feColorMatrix in="SourceAlpha" type="matrix" values="0 0 0 0 0 0 0 0 0 0 0 0 0 0 0 0 0 0 127 0" result="hardAlpha"/>
<feMorphology radius="3" operator="erode" in="SourceAlpha" result="effect2_dropShadow_11_326"/>
<feOffset dy="10"/>
<feGaussianBlur stdDeviation="7.5"/>
<feComposite in2="hardAlpha" operator="out"/>
<feColorMatrix type="matrix" values="0 0 0 0 0.643137 0 0 0 0 0.870588 0 0 0 0 0.00784314 0 0 0 0.2 0"/>
<feBlend mode="normal" in2="effect1_dropShadow_11_326" result="effect2_dropShadow_11_326"/>
<feBlend mode="normal" in="SourceGraphic" in2="effect2_dropShadow_11_326" result="shape"/>
</filter>
</defs>
</svg>
