<svg width="14" height="14" viewBox="0 0 14 14" fill="none" xmlns="http://www.w3.org/2000/svg">
<path d="M2.70703 5.83594C3.83203 8.01562 5.48438 9.66797 7.66406 10.793L9.31641 9.14062C9.55078 8.90625 9.80859 8.84766 10.0898 8.96484C10.9336 9.24609 11.8242 9.38672 12.7617 9.38672C12.9727 9.38672 13.1484 9.45703 13.2891 9.59766C13.4297 9.73828 13.5 9.91406 13.5 10.125V12.7617C13.5 12.9727 13.4297 13.1484 13.2891 13.2891C13.1484 13.4297 12.9727 13.5 12.7617 13.5C9.24609 13.5 6.23438 12.2578 3.72656 9.77344C1.24219 7.26562 0 4.25391 0 0.738281C0 0.527344 0.0703125 0.351562 0.210938 0.210938C0.351562 0.0703125 0.527344 0 0.738281 0H3.375C3.58594 0 3.76172 0.0703125 3.90234 0.210938C4.04297 0.351562 4.11328 0.527344 4.11328 0.738281C4.11328 1.67578 4.25391 2.56641 4.53516 3.41016C4.62891 3.71484 4.57031 3.97266 4.35938 4.18359L2.70703 5.83594Z" fill="#A4DE02"/>
</svg>
