<svg width="15" height="15" viewBox="0 0 15 15" fill="none" xmlns="http://www.w3.org/2000/svg">
<path d="M5.97656 11.25L12.7266 4.5L11.6719 3.41016L5.97656 9.10547L3.30469 6.43359L2.25 7.48828L5.97656 11.25ZM2.17969 2.21484C3.65625 0.738281 5.42578 0 7.48828 0C9.55078 0 11.3086 0.738281 12.7617 2.21484C14.2383 3.66797 14.9766 5.42578 14.9766 7.48828C14.9766 9.55078 14.2383 11.3203 12.7617 12.7969C11.3086 14.25 9.55078 14.9766 7.48828 14.9766C5.42578 14.9766 3.65625 14.25 2.17969 12.7969C0.726562 11.3203 0 9.55078 0 7.48828C0 5.42578 0.726562 3.66797 2.17969 2.21484Z" fill="#A4DE02"/>
</svg>
