<svg width="15" height="15" viewBox="0 0 15 15" fill="none" xmlns="http://www.w3.org/2000/svg">
<path d="M8.54297 12.0586C10.1133 11.7539 10.8984 10.9688 10.8984 9.70312C10.8984 8.27344 9.84375 7.28906 7.73438 6.75C6.42188 6.42188 5.76562 5.94141 5.76562 5.30859C5.76562 4.95703 5.91797 4.66406 6.22266 4.42969C6.55078 4.19531 6.99609 4.07812 7.55859 4.07812C8.61328 4.07812 9.16406 4.54688 9.21094 5.48438H10.6875C10.6406 4.14844 9.92578 3.30469 8.54297 2.95312V1.47656H6.53906V2.95312C5.85938 3.09375 5.29688 3.375 4.85156 3.79688C4.42969 4.19531 4.21875 4.71094 4.21875 5.34375C4.21875 6.65625 5.26172 7.57031 7.34766 8.08594C8.68359 8.39062 9.35156 8.92969 9.35156 9.70312C9.35156 10.0078 9.21094 10.2891 8.92969 10.5469C8.67188 10.7812 8.21484 10.8984 7.55859 10.8984C6.31641 10.8984 5.64844 10.4297 5.55469 9.49219H4.07812C4.14844 10.8281 4.96875 11.6719 6.53906 12.0234V13.5H8.54297V12.0586ZM2.17969 2.21484C3.65625 0.738281 5.42578 0 7.48828 0C9.55078 0 11.3086 0.738281 12.7617 2.21484C14.2383 3.66797 14.9766 5.42578 14.9766 7.48828C14.9766 9.55078 14.2383 11.3203 12.7617 12.7969C11.3086 14.25 9.55078 14.9766 7.48828 14.9766C5.42578 14.9766 3.65625 14.25 2.17969 12.7969C0.726562 11.3203 0 9.55078 0 7.48828C0 5.42578 0.726562 3.66797 2.17969 2.21484Z" fill="#A4DE02"/>
</svg>
